<?xml version="1.0" standalone="no"?>
<!DOCTYPE svg PUBLIC "-//W3C//DTD SVG 20010904//EN"
 "http://www.w3.org/TR/2001/REC-SVG-20010904/DTD/svg10.dtd">
<svg version="1.0" xmlns="http://www.w3.org/2000/svg"
 width="700.000000pt" height="700.000000pt" viewBox="0 0 700.000000 700.000000"
 preserveAspectRatio="xMidYMid meet">
<metadata>
Created by potrace 1.14, written by Peter Selinger 2001-2017
</metadata>
<g transform="translate(0.000000,700.000000) scale(0.100000,-0.100000)"
fill="#000000" stroke="none">
<path d="M3404 6720 c-44 -32 -85 -64 -92 -70 -72 -63 -403 -245 -583 -323
-142 -60 -384 -148 -479 -172 -8 -3 -64 -18 -125 -35 -155 -43 -442 -106 -575
-126 -19 -3 -75 -11 -125 -19 -87 -14 -133 -19 -232 -30 -27 -3 -66 -7 -88
-10 -22 -2 -76 -7 -120 -10 -91 -7 -113 -12 -133 -31 -33 -34 -37 -96 -36
-589 0 -315 4 -460 19 -635 2 -25 7 -79 10 -120 3 -41 8 -86 10 -100 2 -14 7
-52 10 -85 4 -33 8 -71 10 -85 2 -14 7 -45 10 -70 14 -107 37 -244 60 -360 13
-69 26 -136 28 -150 6 -31 34 -152 48 -204 6 -22 12 -46 14 -55 4 -19 19 -80
35 -136 6 -22 12 -47 15 -55 5 -19 49 -159 70 -225 9 -27 18 -54 19 -60 2 -5
6 -17 9 -25 3 -8 16 -44 28 -80 12 -36 26 -69 31 -75 4 -5 8 -15 8 -21 0 -7
30 -83 66 -170 108 -260 273 -580 403 -779 25 -38 50 -78 56 -87 43 -73 234
-329 307 -414 14 -16 69 -81 123 -144 297 -348 688 -665 1040 -844 110 -56
236 -106 268 -106 34 0 149 49 296 126 424 221 824 574 1176 1039 519 684 881
1585 1060 2635 8 47 17 96 19 110 8 48 26 165 31 210 3 25 8 56 10 70 12 75
52 479 60 615 4 61 9 137 11 170 3 33 8 194 11 357 7 372 12 361 -147 372
-352 27 -663 75 -977 151 -81 20 -155 38 -163 40 -39 9 -224 67 -305 95 -360
125 -722 315 -945 494 -121 98 -137 99 -246 16z"/>
</g>
</svg>
